<svg xmlns="http://www.w3.org/2000/svg" width="33.766" height="33.765" viewBox="0 0 33.766 33.765">
  <g id="not-found" transform="translate(-0.001 0)">
    <path id="Path_54819" data-name="Path 54819" d="M69.943,61.033a.658.658,0,1,0-.3,1.282,8.987,8.987,0,1,1-4.855.218.658.658,0,1,0-.411-1.25,10.2,10.2,0,0,0-4.061,2.5,10.31,10.31,0,1,0,9.624-2.754Zm0,0" transform="translate(-53.524 -56.991)" fill="#24234d" fill-rule="evenodd"/>
    <path id="Path_54820" data-name="Path 54820" d="M32.871,28.537l-6.894-6.894a14.078,14.078,0,1,0-4.333,4.333l6.894,6.894a3.064,3.064,0,1,0,4.333-4.333Zm-.93,3.4a1.756,1.756,0,0,1-2.473,0l-7.275-7.275a.658.658,0,0,0-.84-.075A12.772,12.772,0,0,1,5.057,5.056a12.772,12.772,0,0,1,19.534,16.3.658.658,0,0,0,.075.84l7.275,7.275a1.751,1.751,0,0,1,0,2.473Zm0,0" fill="#24234d" fill-rule="evenodd"/>
    <path id="Path_54821" data-name="Path 54821" d="M158.586,150.643a.658.658,0,0,0-.93,0l-3.041,3.041-3.041-3.041a.658.658,0,0,0-.93.93l3.041,3.041-3.041,3.041a.658.658,0,1,0,.93.93l3.041-3.041,3.041,3.041a.658.658,0,0,0,.931-.93l-3.041-3.041,3.041-3.041a.658.658,0,0,0,0-.93Zm0,0" transform="translate(-140.527 -140.528)" fill="#24234d" fill-rule="evenodd"/>
    <path id="Path_54822" data-name="Path 54822" d="M197.658,58.695a.658.658,0,1,0-.658-.658A.659.659,0,0,0,197.658,58.695Zm0,0" transform="translate(-184.008 -53.594)" fill="#24234d" fill-rule="evenodd"/>
  </g>
</svg>
