<svg xmlns="http://www.w3.org/2000/svg" width="1463.022" height="206.295" viewBox="0 0 1463.022 206.295">
  <g id="Group_6717" data-name="Group 6717" transform="translate(-14375.575 6329.084)">
    <g id="Group_1114" transform="translate(14375.575 -6251.157)">
      <path id="Rectangle_4047" d="M0,0H1213.088V55.541H0Z" fill="#fff"/>
    </g>
    <g id="Group_1115" transform="translate(15568.821 -6329.084)">
      <path id="Path_7675" d="M564.892,398.24h-10.58a103.147,103.147,0,0,1,0-206.295h10.58Z" transform="translate(-451.165 -191.945)" fill="#fff"/>
    </g>
    <g id="Group_1116" transform="translate(15698.411 -6308.073)">
      <path id="Path_7676" d="M619.182,239.262H521.324a21.164,21.164,0,0,1,0-42.328h97.858a21.164,21.164,0,0,1,0,42.328Z" transform="translate(-500.16 -196.934)" fill="#fff"/>
    </g>
    <g id="Group_1117" transform="translate(15698.411 -6185.572)">
      <path id="Path_7677" d="M619.182,289.261H521.324a21.161,21.161,0,1,1,0-42.322h97.858a21.161,21.161,0,1,1,0,42.322Z" transform="translate(-500.16 -246.939)" fill="#fff"/>
    </g>
    <path id="Path_7678" d="M269.739,218l-33.756,24.213,19.3,9.431-25.8,9.792,25.8,8.546-35.891,15.309H522.6l-14.576-13.17L522.6,259.3l-14.578-7.656L522.6,237.94l-31.183-8.546L522.6,218Z" transform="translate(14736.427 -6475.742)" fill="#24234d"/>
    <path id="Path_7679" d="M248.352,233.138l-19.019-21.164,9.586-11.313Z" transform="translate(14752.785 -6499.167)" fill="#d5da43"/>
    <path id="Path_7680" d="M260.95,264.142l19.1-63.475L307.481,216.9Z" transform="translate(14804.788 -6500.591)" fill="#d5da43"/>
    <path id="Path_7681" d="M252.953,238.667,285.1,289.8l-16.074,13.076Z" transform="translate(14791.636 -6445.723)" fill="#d5da43"/>
    <path id="Path_7682" d="M346.607,254.278l-55.048-32.859,16.208-20.086Z" transform="translate(14855.133 -6499.131)" fill="#d5da43"/>
    <path id="Path_7683" d="M286.669,299.88l52.671-57.855-27.919,62.451Z" transform="translate(14847.092 -6440.769)" fill="#d5da43"/>
    <path id="Path_7684" d="M320.13,230.38l-17.524,29.259-9.4-16Z" transform="translate(14857.845 -6455.858)" fill="#d5da43"/>
    <path id="Path_7685" d="M294.371,269.388l-27.283-30.524,37.318,13.294Z" transform="translate(14814.884 -6443.597)" fill="#d5da43"/>
    <path id="Path_7686" d="M327.289,238.667l-8.115,32.1h16.3Z" transform="translate(14900.55 -6443.968)" fill="#d5da43"/>
    <path id="Path_7687" d="M236.524,241.444l26.746,35.7-26.746,1.984Z" transform="translate(14764.614 -6440.233)" fill="#d5da43"/>
    <path id="Path_7688" d="M260.587,234.292l18.506,4.983-18.506,4.983L255.6,262.763l-4.983-18.506-18.506-4.983,18.506-4.983,4.983-18.506Z" transform="translate(14757.361 -6477.916)" fill="#d5da43"/>
    <path id="Path_7689" d="M338.006,268.519l13.179,3.549-13.179,3.548-3.549,13.179-3.549-13.179-13.178-3.543,13.179-3.548,3.549-13.179Z" transform="translate(14901.566 -6422.864)" fill="#d5da43"/>
    <path id="Path_7690" d="M301.286,224.854l13.179,3.549-13.179,3.549-3.549,13.179-3.549-13.179L281.01,228.4l13.179-3.549,3.549-13.179Z" transform="translate(14837.785 -6483.228)" fill="#d5da43"/>
  </g>
</svg>
